<svg width="25" height="25" viewBox="0 0 25 25" fill="none" xmlns="http://www.w3.org/2000/svg">
<mask id="mask0_66_93" style="mask-type:alpha" maskUnits="userSpaceOnUse" x="0" y="0" width="25" height="25">
<rect x="0.5" y="0.5" width="24" height="24" fill="#D9D9D9"/>
</mask>
<g mask="url(#mask0_66_93)">
<path d="M6.35 17.6C7.2 16.95 8.15 16.4375 9.2 16.0625C10.25 15.6875 11.35 15.5 12.5 15.5C13.65 15.5 14.75 15.6875 15.8 16.0625C16.85 16.4375 17.8 16.95 18.65 17.6C19.2333 16.9167 19.6875 16.1417 20.0125 15.275C20.3375 14.4083 20.5 13.4833 20.5 12.5C20.5 10.2833 19.7208 8.39583 18.1625 6.8375C16.6042 5.27917 14.7167 4.5 12.5 4.5C10.2833 4.5 8.39583 5.27917 6.8375 6.8375C5.27917 8.39583 4.5 10.2833 4.5 12.5C4.5 13.4833 4.6625 14.4083 4.9875 15.275C5.3125 16.1417 5.76667 16.9167 6.35 17.6ZM12.5 13.5C11.5167 13.5 10.6875 13.1625 10.0125 12.4875C9.3375 11.8125 9 10.9833 9 10C9 9.01667 9.3375 8.1875 10.0125 7.5125C10.6875 6.8375 11.5167 6.5 12.5 6.5C13.4833 6.5 14.3125 6.8375 14.9875 7.5125C15.6625 8.1875 16 9.01667 16 10C16 10.9833 15.6625 11.8125 14.9875 12.4875C14.3125 13.1625 13.4833 13.5 12.5 13.5ZM12.5 22.5C11.1167 22.5 9.81667 22.2375 8.6 21.7125C7.38333 21.1875 6.325 20.475 5.425 19.575C4.525 18.675 3.8125 17.6167 3.2875 16.4C2.7625 15.1833 2.5 13.8833 2.5 12.5C2.5 11.1167 2.7625 9.81667 3.2875 8.6C3.8125 7.38333 4.525 6.325 5.425 5.425C6.325 4.525 7.38333 3.8125 8.6 3.2875C9.81667 2.7625 11.1167 2.5 12.5 2.5C13.8833 2.5 15.1833 2.7625 16.4 3.2875C17.6167 3.8125 18.675 4.525 19.575 5.425C20.475 6.325 21.1875 7.38333 21.7125 8.6C22.2375 9.81667 22.5 11.1167 22.5 12.5C22.5 13.8833 22.2375 15.1833 21.7125 16.4C21.1875 17.6167 20.475 18.675 19.575 19.575C18.675 20.475 17.6167 21.1875 16.4 21.7125C15.1833 22.2375 13.8833 22.5 12.5 22.5ZM12.5 20.5C13.3833 20.5 14.2167 20.3708 15 20.1125C15.7833 19.8542 16.5 19.4833 17.15 19C16.5 18.5167 15.7833 18.1458 15 17.8875C14.2167 17.6292 13.3833 17.5 12.5 17.5C11.6167 17.5 10.7833 17.6292 10 17.8875C9.21667 18.1458 8.5 18.5167 7.85 19C8.5 19.4833 9.21667 19.8542 10 20.1125C10.7833 20.3708 11.6167 20.5 12.5 20.5ZM12.5 11.5C12.9333 11.5 13.2917 11.3583 13.575 11.075C13.8583 10.7917 14 10.4333 14 10C14 9.56667 13.8583 9.20833 13.575 8.925C13.2917 8.64167 12.9333 8.5 12.5 8.5C12.0667 8.5 11.7083 8.64167 11.425 8.925C11.1417 9.20833 11 9.56667 11 10C11 10.4333 11.1417 10.7917 11.425 11.075C11.7083 11.3583 12.0667 11.5 12.5 11.5Z" fill="#1C1B1F"/>
</g>
</svg>
