<svg width="25" height="25" viewBox="0 0 25 25" fill="none" xmlns="http://www.w3.org/2000/svg">
<mask id="mask0_66_101" style="mask-type:alpha" maskUnits="userSpaceOnUse" x="0" y="0" width="25" height="25">
<rect x="0.5" y="0.5" width="24" height="24" fill="#D9D9D9"/>
</mask>
<g mask="url(#mask0_66_101)">
<path d="M5.5 22.5C4.95 22.5 4.47917 22.3042 4.0875 21.9125C3.69583 21.5208 3.5 21.05 3.5 20.5V6.5C3.5 5.95 3.69583 5.47917 4.0875 5.0875C4.47917 4.69583 4.95 4.5 5.5 4.5H6.5V2.5H8.5V4.5H16.5V2.5H18.5V4.5H19.5C20.05 4.5 20.5208 4.69583 20.9125 5.0875C21.3042 5.47917 21.5 5.95 21.5 6.5V20.5C21.5 21.05 21.3042 21.5208 20.9125 21.9125C20.5208 22.3042 20.05 22.5 19.5 22.5H5.5ZM5.5 20.5H19.5V10.5H5.5V20.5ZM5.5 8.5H19.5V6.5H5.5V8.5ZM12.5 14.5C12.2167 14.5 11.9792 14.4042 11.7875 14.2125C11.5958 14.0208 11.5 13.7833 11.5 13.5C11.5 13.2167 11.5958 12.9792 11.7875 12.7875C11.9792 12.5958 12.2167 12.5 12.5 12.5C12.7833 12.5 13.0208 12.5958 13.2125 12.7875C13.4042 12.9792 13.5 13.2167 13.5 13.5C13.5 13.7833 13.4042 14.0208 13.2125 14.2125C13.0208 14.4042 12.7833 14.5 12.5 14.5ZM8.5 14.5C8.21667 14.5 7.97917 14.4042 7.7875 14.2125C7.59583 14.0208 7.5 13.7833 7.5 13.5C7.5 13.2167 7.59583 12.9792 7.7875 12.7875C7.97917 12.5958 8.21667 12.5 8.5 12.5C8.78333 12.5 9.02083 12.5958 9.2125 12.7875C9.40417 12.9792 9.5 13.2167 9.5 13.5C9.5 13.7833 9.40417 14.0208 9.2125 14.2125C9.02083 14.4042 8.78333 14.5 8.5 14.5ZM16.5 14.5C16.2167 14.5 15.9792 14.4042 15.7875 14.2125C15.5958 14.0208 15.5 13.7833 15.5 13.5C15.5 13.2167 15.5958 12.9792 15.7875 12.7875C15.9792 12.5958 16.2167 12.5 16.5 12.5C16.7833 12.5 17.0208 12.5958 17.2125 12.7875C17.4042 12.9792 17.5 13.2167 17.5 13.5C17.5 13.7833 17.4042 14.0208 17.2125 14.2125C17.0208 14.4042 16.7833 14.5 16.5 14.5ZM12.5 18.5C12.2167 18.5 11.9792 18.4042 11.7875 18.2125C11.5958 18.0208 11.5 17.7833 11.5 17.5C11.5 17.2167 11.5958 16.9792 11.7875 16.7875C11.9792 16.5958 12.2167 16.5 12.5 16.5C12.7833 16.5 13.0208 16.5958 13.2125 16.7875C13.4042 16.9792 13.5 17.2167 13.5 17.5C13.5 17.7833 13.4042 18.0208 13.2125 18.2125C13.0208 18.4042 12.7833 18.5 12.5 18.5ZM8.5 18.5C8.21667 18.5 7.97917 18.4042 7.7875 18.2125C7.59583 18.0208 7.5 17.7833 7.5 17.5C7.5 17.2167 7.59583 16.9792 7.7875 16.7875C7.97917 16.5958 8.21667 16.5 8.5 16.5C8.78333 16.5 9.02083 16.5958 9.2125 16.7875C9.40417 16.9792 9.5 17.2167 9.5 17.5C9.5 17.7833 9.40417 18.0208 9.2125 18.2125C9.02083 18.4042 8.78333 18.5 8.5 18.5ZM16.5 18.5C16.2167 18.5 15.9792 18.4042 15.7875 18.2125C15.5958 18.0208 15.5 17.7833 15.5 17.5C15.5 17.2167 15.5958 16.9792 15.7875 16.7875C15.9792 16.5958 16.2167 16.5 16.5 16.5C16.7833 16.5 17.0208 16.5958 17.2125 16.7875C17.4042 16.9792 17.5 17.2167 17.5 17.5C17.5 17.7833 17.4042 18.0208 17.2125 18.2125C17.0208 18.4042 16.7833 18.5 16.5 18.5Z" fill="#1C1B1F"/>
</g>
</svg>
