<svg width="25" height="25" viewBox="0 0 25 25" fill="none" xmlns="http://www.w3.org/2000/svg">
<mask id="mask0_66_105" style="mask-type:alpha" maskUnits="userSpaceOnUse" x="0" y="0" width="25" height="25">
<rect x="0.5" y="0.5" width="24" height="24" fill="#D9D9D9"/>
</mask>
<g mask="url(#mask0_66_105)">
<path d="M5.5 21.5C4.95 21.5 4.47917 21.3042 4.0875 20.9125C3.69583 20.5208 3.5 20.05 3.5 19.5V5.5C3.5 4.95 3.69583 4.47917 4.0875 4.0875C4.47917 3.69583 4.95 3.5 5.5 3.5H16.5L21.5 8.5V19.5C21.5 20.05 21.3042 20.5208 20.9125 20.9125C20.5208 21.3042 20.05 21.5 19.5 21.5H5.5ZM5.5 19.5H19.5V9.5H15.5V5.5H5.5V19.5ZM7.5 17.5H17.5V15.5H7.5V17.5ZM7.5 9.5H12.5V7.5H7.5V9.5ZM7.5 13.5H17.5V11.5H7.5V13.5Z" fill="#1C1B1F"/>
</g>
</svg>
