<svg width="122" height="25" viewBox="0 0 122 25" fill="none" xmlns="http://www.w3.org/2000/svg">
<g clip-path="url(#clip0_66_171)">
<path d="M21.3344 0.514268L21.0252 0.528323C21.019 0.528625 21.0127 0.529029 21.0064 0.529566C19.9921 0.617833 19.0827 0.875806 18.3034 1.29629C17.6313 1.659 17.0489 2.14593 16.5726 2.74359C15.8918 3.59794 15.531 4.54228 15.3398 5.30762C14.5998 4.99883 13.8023 4.84263 12.9617 4.84258C12.0293 4.84258 11.0473 5.03774 10.043 5.4227C7.80697 6.27987 6.48887 8.06734 6.33137 10.456C6.28561 11.1501 6.34655 11.7986 6.43257 12.3171C6.34233 12.3136 6.25123 12.3119 6.15941 12.3119C5.37216 12.3118 3.84341 12.4444 2.45008 13.3327C1.77878 13.7605 1.23354 14.3079 0.829616 14.9596C0.30323 15.8086 0.0291483 16.8205 0.0148562 17.9671C-0.0216761 20.9 1.38697 22.5002 2.57511 23.326C3.65165 24.0743 5.01471 24.4864 6.41325 24.4864C6.42776 24.4864 6.4422 24.4864 6.45647 24.4863L17.7438 24.4171C17.9529 24.4157 18.1304 24.2726 18.1633 24.0787L18.2266 23.7069C18.2296 23.6938 18.2558 23.5904 18.3553 23.4906C18.4988 23.3469 18.7319 23.2741 19.048 23.2741C20.3621 23.2741 20.9782 22.4839 20.9944 21.7496C21.0128 20.9207 20.2602 20.033 18.9688 19.9824C18.5398 19.9657 17.8816 19.9572 17.0124 19.9572C15.6705 19.9572 14.2484 19.9774 13.9932 19.9812C13.9663 19.9731 13.8963 19.9447 13.8224 19.8539C13.7123 19.7186 13.5811 19.4355 13.5811 18.8553V11.2787C13.5811 11.2724 13.581 11.2661 13.5806 11.2598L13.5785 11.218C13.5784 11.2168 13.5784 11.2156 13.5783 11.2144C13.5779 11.1984 13.5728 10.9148 13.766 10.7202C13.9579 10.5271 14.3548 10.4284 14.9457 10.4268C15.8135 10.4244 19.0039 10.4237 21.4723 10.4237C23.9407 10.4237 27.1151 10.4244 27.9376 10.4268C28.5249 10.4285 28.9203 10.5257 29.113 10.716C29.302 10.9022 29.3057 11.1719 29.3052 11.211L29.3044 11.2201C29.3031 11.2326 29.3025 11.2452 29.3025 11.2578V18.8553C29.3025 19.4825 29.1488 19.7572 29.0574 19.8651C28.9836 19.9523 28.9157 19.9753 28.8903 19.9812C28.5517 19.9761 27.1715 19.9572 25.8713 19.9572C25.0019 19.9572 24.3437 19.9657 23.9148 19.9824C22.6234 20.033 21.8707 20.9206 21.889 21.7496C21.9054 22.4839 22.5215 23.2741 23.8355 23.2741C24.1516 23.2741 24.3839 23.3455 24.526 23.4864C24.6238 23.5833 24.6522 23.6872 24.6576 23.7109L24.7201 24.0787C24.7531 24.2726 24.9305 24.4157 25.1397 24.4171L36.426 24.4863C36.4416 24.4864 36.4557 24.4864 36.4699 24.4864C37.8687 24.4864 39.2317 24.0743 40.3082 23.326C41.4964 22.5002 42.9051 20.9001 42.8687 17.9671C42.8543 16.8205 42.5803 15.8086 42.054 14.9595C41.6501 14.3078 41.1048 13.7605 40.4333 13.3326C39.0398 12.4445 37.5113 12.3119 36.7244 12.3119C36.6324 12.3119 36.5413 12.3136 36.4509 12.3171C36.537 11.7986 36.5979 11.15 36.5522 10.456C36.4744 9.27575 36.1227 8.24398 35.507 7.38942C34.8762 6.51377 33.9882 5.85204 32.8684 5.42275C31.8641 5.03779 30.8788 4.84258 29.9401 4.84258C29.0897 4.84258 28.2862 4.99883 27.5439 5.30787C27.3528 4.54233 26.9919 3.59774 26.3112 2.74349C25.835 2.14583 25.2527 1.6589 24.5804 1.29619C23.8011 0.875773 22.8916 0.617833 21.877 0.529566C21.8709 0.529029 21.8648 0.528625 21.8587 0.528323L21.5582 0.514366C21.5207 0.512625 21.4827 0.511723 21.4451 0.511723C21.4083 0.511723 21.3711 0.512561 21.3344 0.514268ZM16.6605 8.1962C16.8219 8.1359 16.9284 7.98979 16.93 7.82661L16.9406 6.72766C16.9422 6.5642 17.0242 2.72163 20.9694 2.24434C21.1252 2.22553 21.2841 2.21596 21.4417 2.21596C21.5992 2.21596 21.7582 2.22553 21.914 2.24441C25.8592 2.72177 25.9412 6.56348 25.9428 6.72676L25.9515 7.80646C25.9528 7.96873 26.0579 8.11434 26.2181 8.17549C26.2702 8.1954 26.3249 8.20509 26.3791 8.20509C26.4912 8.20509 26.6013 8.16367 26.6832 8.08589L27.4939 7.31631C27.4958 7.31453 27.6904 7.13247 28.0713 6.95388C28.5773 6.71644 29.1574 6.59614 29.7957 6.59614C30.5279 6.59614 31.3215 6.75811 32.155 7.07764C36.0213 8.55959 34.475 12.9078 34.4073 13.0922L34.0703 14.0032C34.0155 14.1508 34.0572 14.3149 34.1766 14.4236C34.2579 14.4975 34.3651 14.5367 34.4742 14.5367C34.5257 14.5367 34.5776 14.528 34.6276 14.51L35.5872 14.164C35.8631 14.0645 36.2769 14.0075 36.7233 14.0075C37.7051 14.0075 38.687 14.2743 39.4167 14.7394C40.4878 15.4221 41.0401 16.5147 41.0585 17.9871C41.0804 19.7649 40.4659 21.1014 39.2312 21.9593C38.4643 22.4926 37.4838 22.7862 36.4702 22.7862L36.4408 22.7861H36.437L26.1601 22.723C26.0186 22.4987 25.8018 22.2423 25.4749 22.0255C25.2258 21.8602 24.9462 21.7399 24.6389 21.6652C24.9752 21.6602 25.3823 21.6577 25.8568 21.6577C27.1403 21.6577 28.5108 21.6761 28.9002 21.6817L28.9157 21.6819C28.9176 21.682 28.9195 21.682 28.9216 21.682C28.9451 21.682 29.5094 21.6775 30.0652 21.289C30.5431 20.955 31.1127 20.2617 31.1127 18.8553V11.3029C31.1256 11.0495 31.1079 10.2319 30.4415 9.56064C29.8842 8.99955 29.0606 8.72679 27.9232 8.72676H27.9192H27.9163C27.5479 8.72717 26.959 8.7281 26.2287 8.72933C24.3482 8.73244 21.5064 8.73716 19.0931 8.73716C17.0352 8.73716 15.6485 8.73369 14.9718 8.72679C14.9495 8.72656 14.9272 8.72646 14.9052 8.72646C13.8204 8.72639 12.9917 9.00708 12.4421 9.56064C11.7756 10.2319 11.7579 11.0495 11.7707 11.3029V18.8553C11.7707 20.2613 12.3402 20.9544 12.8181 21.2881C13.3752 21.6775 13.9457 21.6819 13.9698 21.6819C13.9725 21.6819 13.9754 21.6819 13.9782 21.6818C13.9919 21.6816 15.5673 21.6576 17.0232 21.6576C17.4993 21.6576 17.9076 21.6601 18.2448 21.6652C17.9374 21.7399 17.6578 21.8602 17.4085 22.0255C17.0816 22.2422 16.8649 22.4987 16.7233 22.723L6.44562 22.7861H6.42736C5.40485 22.7861 4.41925 22.4926 3.65207 21.9593C2.41761 21.1014 1.80294 19.7648 1.82504 17.9871C1.84343 16.5148 2.39573 15.4221 3.46672 14.7394C4.19658 14.2743 5.17836 14.0075 6.16029 14.0075C6.60638 14.0075 7.02044 14.0645 7.2963 14.164L8.25608 14.51C8.30588 14.528 8.35776 14.5367 8.40927 14.5367C8.51844 14.5367 8.62563 14.4975 8.70687 14.4236C8.82641 14.3149 8.86798 14.1508 8.81334 14.0032L8.47583 13.0913C8.47196 13.0806 8.04982 11.9034 8.13827 10.561C8.25161 8.84169 9.09885 7.7023 10.7283 7.07764C11.5619 6.75819 12.3559 6.59619 13.0881 6.59619C13.7249 6.59619 14.3041 6.71594 14.8094 6.9522C15.1764 7.12381 15.3705 7.29866 15.3862 7.31307L16.1943 8.10156C16.2765 8.18179 16.3884 8.2247 16.5025 8.2247C16.5556 8.2247 16.6092 8.21538 16.6605 8.1962Z" fill="url(#paint0_linear_66_171)"/>
<path d="M46.3604 3.2781V7.78591H47.9565V3.2781H49.1455V7.78591H50.7255V3.2781H51.9108V8.68004H45.1714V3.2781H46.3604ZM54.8143 6.47251H54.1311V8.68004H52.9458V3.2781H54.1311V5.44112H54.6721L56.0787 3.2781H57.5246L55.7507 5.83438L57.7101 8.68004H56.2957L54.8143 6.47251ZM62.7668 6.10152C62.7668 6.63328 62.6665 7.09953 62.4666 7.50022C62.2664 7.90092 61.9793 8.2101 61.6053 8.42776C61.234 8.64542 60.8074 8.75425 60.3254 8.75425C59.8485 8.75425 59.4233 8.64665 59.0493 8.43145C58.6753 8.21628 58.3856 7.90958 58.1803 7.51134C57.9747 7.11065 57.8707 6.65061 57.868 6.13119V5.86405C57.868 5.33226 57.9696 4.86479 58.1722 4.46164C58.3778 4.056 58.6662 3.74558 59.0375 3.53041C59.4115 3.31272 59.8381 3.2039 60.3174 3.2039C60.7967 3.2039 61.222 3.31272 61.5935 3.53041C61.9675 3.74558 62.2557 4.056 62.4586 4.46164C62.6641 4.86479 62.7668 5.33103 62.7668 5.86034V6.10152ZM61.5657 5.85665C61.5657 5.29024 61.4577 4.85984 61.2418 4.56552C61.0258 4.27119 60.7178 4.124 60.3174 4.124C59.9196 4.124 59.6128 4.26994 59.3971 4.5618C59.1811 4.85121 59.0717 5.27663 59.0691 5.8381V6.10152C59.0691 6.65307 59.1771 7.08097 59.393 7.38522C59.609 7.68943 59.9196 7.84154 60.3254 7.84154C60.7229 7.84154 61.0284 7.69561 61.2418 7.40377C61.4551 7.10942 61.5631 6.68151 61.5657 6.12005V5.85665ZM68.179 3.2781V8.68004H66.9897V4.17966H65.457L65.3621 6.08666C65.3228 6.72976 65.2356 7.2368 65.1014 7.60782C64.967 7.97635 64.7708 8.24718 64.5128 8.42033C64.2546 8.59099 63.9018 8.67758 63.454 8.68004H63.1461V7.78591L63.3433 7.76736C63.6411 7.73025 63.8531 7.56948 63.9795 7.28502C64.1087 6.99813 64.1902 6.48861 64.2244 5.75646L64.3233 3.2781H68.179ZM72.5324 7.567H70.4543L70.0592 8.68004H68.7991L70.9403 3.2781H72.0384L74.1916 8.68004H72.9312L72.5324 7.567ZM70.7743 6.66544H72.2124L71.4893 4.64342L70.7743 6.66544ZM81.4683 6.10152C81.4683 6.63328 81.368 7.09953 81.1681 7.50022C80.9679 7.90092 80.6808 8.2101 80.3068 8.42776C79.9355 8.64542 79.5089 8.75425 79.0269 8.75425C78.55 8.75425 78.1247 8.64665 77.7508 8.43145C77.3768 8.21628 77.0871 7.90958 76.8818 7.51134C76.6762 7.11065 76.5722 6.65061 76.5695 6.13119V5.86405C76.5695 5.33226 76.6711 4.86479 76.8737 4.46164C77.0793 4.056 77.3677 3.74558 77.739 3.53041C78.113 3.31272 78.5396 3.2039 79.0189 3.2039C79.4982 3.2039 79.9235 3.31272 80.295 3.53041C80.669 3.74558 80.9574 4.056 81.16 4.46164C81.3656 4.86479 81.4683 5.33103 81.4683 5.86034V6.10152ZM80.2672 5.85665C80.2672 5.29024 80.1592 4.85984 79.9433 4.56552C79.7273 4.27119 79.4193 4.124 79.0189 4.124C78.6211 4.124 78.3145 4.26994 78.0986 4.5618C77.8826 4.85121 77.7732 5.27663 77.7706 5.8381V6.10152C77.7706 6.65307 77.8786 7.08097 78.0945 7.38522C78.3105 7.68943 78.6211 7.84154 79.0269 7.84154C79.4244 7.84154 79.7299 7.69561 79.9433 7.40377C80.1566 7.10942 80.2646 6.68151 80.2672 6.12005V5.85665ZM86.0823 4.17966H83.5145V5.22592H84.4389C85.116 5.22592 85.6516 5.38051 86.0467 5.68968C86.4445 5.99638 86.6434 6.41068 86.6434 6.93258C86.6434 7.45694 86.4458 7.87865 86.0507 8.19773C85.6583 8.51432 85.1355 8.67509 84.4824 8.68004H82.3175V3.2781H86.0823V4.17966ZM83.5145 6.12376V7.78591H84.4586C84.7615 7.78591 85.0026 7.70799 85.1817 7.55216C85.3635 7.39634 85.4544 7.18734 85.4544 6.92515C85.4544 6.68028 85.3672 6.48735 85.1935 6.34636C85.0224 6.20292 84.7866 6.12871 84.4865 6.12376H83.5145ZM92.0791 3.2781V8.68004H90.8901V4.17966H89.3574L89.2625 6.08666C89.2229 6.72976 89.136 7.2368 89.0018 7.60782C88.8674 7.97635 88.6712 8.24718 88.4132 8.42033C88.155 8.59099 87.8022 8.67758 87.3544 8.68004H87.0462V7.78591L87.2437 7.76736C87.5415 7.73025 87.7535 7.56948 87.8799 7.28502C88.0088 6.99813 88.0906 6.48861 88.1248 5.75646L88.2234 3.2781H92.0791ZM96.4325 7.567H94.3547L93.9596 8.68004H92.6995L94.8407 3.2781H95.9388L98.0917 8.68004H96.8316L96.4325 7.567ZM94.6747 6.66544H96.1125L95.3897 4.64342L94.6747 6.66544ZM102.998 3.2781V8.68004H101.809V6.63205C101.448 6.70378 101.072 6.73965 100.679 6.73965C99.9498 6.73965 99.3954 6.59 99.0163 6.29073C98.6397 5.99143 98.4461 5.55858 98.4354 4.99217V3.2781H99.6247V4.96993C99.6271 5.27909 99.7062 5.50169 99.8615 5.63774C100.02 5.77378 100.292 5.84179 100.679 5.84179C101.072 5.84179 101.448 5.80594 101.809 5.73421V3.2781H102.998ZM108.715 8.68004H107.53V6.36492H105.218V8.68004H104.033V3.2781H105.218V5.46707H107.53V3.2781H108.715V8.68004ZM110.958 5.22592H111.883C112.56 5.22592 113.096 5.38051 113.491 5.68968C113.888 5.99638 114.087 6.41068 114.087 6.93258C114.087 7.45694 113.89 7.87865 113.495 8.19773C113.102 8.51432 112.58 8.67509 111.926 8.68004H109.765V3.2781H110.958V5.22592ZM115.766 8.68004H114.581V3.2781H115.766V8.68004ZM110.958 6.12376V7.78591H111.903C112.206 7.78591 112.446 7.70799 112.626 7.55216C112.807 7.39634 112.898 7.18734 112.898 6.92515C112.898 6.68028 112.811 6.48735 112.637 6.34636C112.466 6.20292 112.23 6.12871 111.93 6.12376H110.958ZM118.938 5.14059L120.017 3.2781H121.38L119.705 5.95682L121.423 8.68004H120.044L118.938 6.78788L117.832 8.68004H116.454L118.172 5.95682L116.497 3.2781H117.86L118.938 5.14059Z" fill="black" fill-opacity="0.979996"/>
<path d="M51.7279 14.0676H49.1588V20.6298H47.4306V14.0676H44.896V12.753H51.7279V14.0676ZM57.7648 17.2162H54.4467V19.326H58.3406V20.6298H52.7185V12.753H58.3291V14.0676H54.4467V15.9448H57.7648V17.2162ZM62.3556 15.4688L63.9282 12.753H65.9156L63.4732 16.6589L65.979 20.6298H63.9685L62.3556 17.8708L60.7429 20.6298H58.7325L61.2382 16.6589L58.7958 12.753H60.783L62.3556 15.4688ZM73.6807 20.6298H71.9525V17.254H68.5825V20.6298H66.8547V12.753H68.5825V15.9448H71.9525V12.753H73.6807V20.6298ZM82.0849 16.8699C82.0849 17.6453 81.9392 18.3252 81.6473 18.9095C81.3554 19.4937 80.9368 19.9446 80.3915 20.262C79.8499 20.5793 79.2279 20.738 78.5251 20.738C77.8301 20.738 77.2097 20.5811 76.6644 20.2673C76.1191 19.9536 75.6967 19.5064 75.3971 18.9257C75.0977 18.3414 74.9459 17.6706 74.9421 16.9132V16.5237C74.9421 15.7483 75.0899 15.0666 75.3856 14.4788C75.6852 13.8873 76.1057 13.4346 76.6473 13.1209C77.1926 12.8035 77.8146 12.6448 78.5136 12.6448C79.2124 12.6448 79.8328 12.8035 80.3741 13.1209C80.9194 13.4346 81.3399 13.8873 81.6358 14.4788C81.9352 15.0666 82.0849 15.7465 82.0849 16.5183V16.8699ZM80.3337 16.5129C80.3337 15.687 80.1763 15.0594 79.8614 14.6302C79.5465 14.201 79.0972 13.9865 78.5136 13.9865C77.9336 13.9865 77.4864 14.1992 77.1715 14.6248C76.8566 15.0468 76.697 15.6671 76.6933 16.4858V16.8699C76.6933 17.6742 76.8507 18.2981 77.1656 18.7418C77.4805 19.1854 77.9336 19.4072 78.5251 19.4072C79.1049 19.4072 79.5505 19.1944 79.8614 18.7688C80.1726 18.3396 80.33 17.7157 80.3337 16.897V16.5129ZM89.9767 12.753V20.6298H88.2429V14.0676H86.0079L85.8695 16.8483C85.812 17.786 85.6853 18.5254 85.4893 19.0663C85.2934 19.6037 85.0074 19.9987 84.631 20.2511C84.2546 20.5 83.7401 20.6262 83.0873 20.6298H82.6379V19.326L82.9261 19.299C83.3599 19.2449 83.6692 19.0105 83.8534 18.5957C84.0416 18.1773 84.1605 17.4344 84.2105 16.3668L84.3546 12.753H89.9767ZM98.3753 16.8699C98.3753 17.6453 98.2293 18.3252 97.9377 18.9095C97.6458 19.4937 97.2272 19.9446 96.6819 20.262C96.1403 20.5793 95.5182 20.738 94.8155 20.738C94.1202 20.738 93.5001 20.5811 92.9548 20.2673C92.4094 19.9536 91.9871 19.5064 91.6874 18.9257C91.3881 18.3414 91.2362 17.6706 91.2325 16.9132V16.5237C91.2325 15.7483 91.3803 15.0666 91.6759 14.4788C91.9756 13.8873 92.3961 13.4346 92.9376 13.1209C93.483 12.8035 94.105 12.6448 94.804 12.6448C95.5028 12.6448 96.1232 12.8035 96.6645 13.1209C97.2098 13.4346 97.6303 13.8873 97.9262 14.4788C98.2256 15.0666 98.3753 15.7465 98.3753 16.5183V16.8699ZM96.6241 16.5129C96.6241 15.687 96.4667 15.0594 96.1518 14.6302C95.8369 14.201 95.3875 13.9865 94.804 13.9865C94.2239 13.9865 93.7767 14.1992 93.4618 14.6248C93.1469 15.0468 92.9874 15.6671 92.9836 16.4858V16.8699C92.9836 17.6742 93.1411 18.2981 93.456 18.7418C93.7708 19.1854 94.2239 19.4072 94.8155 19.4072C95.3953 19.4072 95.8409 19.1944 96.1518 18.7688C96.4629 18.3396 96.6204 17.7157 96.6241 16.897V16.5129ZM105.132 14.0676H101.371V20.6298H99.6426V12.753H105.132V14.0676ZM111.238 12.753H112.972V20.6298H111.238V15.3984L107.88 20.6298H106.152V12.753H107.88V17.9952L111.238 12.753ZM119.499 12.753H121.233V20.6298H119.499V15.3984L116.14 20.6298H114.412V12.753H116.14V17.9952L119.499 12.753ZM119.833 10.681C119.833 11.1607 119.649 11.5484 119.28 11.8441C118.915 12.1399 118.435 12.2877 117.84 12.2877C117.244 12.2877 116.762 12.1417 116.394 11.8495C116.029 11.5574 115.847 11.1679 115.847 10.681H117.028C117.028 10.9082 117.098 11.0849 117.241 11.2112C117.387 11.3338 117.586 11.3951 117.84 11.3951C118.089 11.3951 118.285 11.3338 118.427 11.2112C118.569 11.0849 118.64 10.9082 118.64 10.681H119.833Z" fill="black" fill-opacity="0.979996"/>
</g>
<defs>
<linearGradient id="paint0_linear_66_171" x1="21.4418" y1="0.330542" x2="21.4418" y2="24.5648" gradientUnits="userSpaceOnUse">
<stop stop-color="#1792E6"/>
<stop offset="0.994821" stop-color="#054EA6"/>
<stop offset="1" stop-color="#054EA6"/>
</linearGradient>
<clipPath id="clip0_66_171">
<rect width="122" height="24" fill="white" transform="translate(0 0.5)"/>
</clipPath>
</defs>
</svg>
