<svg width="25" height="25" viewBox="0 0 25 25" fill="none" xmlns="http://www.w3.org/2000/svg">
<mask id="mask0_66_118" style="mask-type:alpha" maskUnits="userSpaceOnUse" x="0" y="0" width="25" height="25">
<rect x="0.5" y="0.5" width="24" height="24" fill="#D9D9D9"/>
</mask>
<g mask="url(#mask0_66_118)">
<path d="M9.7502 22.5L9.3502 19.3C9.13353 19.2167 8.92936 19.1167 8.7377 19C8.54603 18.8833 8.35853 18.7583 8.1752 18.625L5.2002 19.875L2.4502 15.125L5.0252 13.175C5.00853 13.0583 5.0002 12.9458 5.0002 12.8375V12.1625C5.0002 12.0542 5.00853 11.9417 5.0252 11.825L2.4502 9.875L5.2002 5.125L8.1752 6.375C8.35853 6.24167 8.5502 6.11667 8.7502 6C8.9502 5.88333 9.1502 5.78333 9.3502 5.7L9.7502 2.5H15.2502L15.6502 5.7C15.8669 5.78333 16.071 5.88333 16.2627 6C16.4544 6.11667 16.6419 6.24167 16.8252 6.375L19.8002 5.125L22.5502 9.875L19.9752 11.825C19.9919 11.9417 20.0002 12.0542 20.0002 12.1625V12.8375C20.0002 12.9458 19.9835 13.0583 19.9502 13.175L22.5252 15.125L19.7752 19.875L16.8252 18.625C16.6419 18.7583 16.4502 18.8833 16.2502 19C16.0502 19.1167 15.8502 19.2167 15.6502 19.3L15.2502 22.5H9.7502ZM12.5502 16C13.5169 16 14.3419 15.6583 15.0252 14.975C15.7085 14.2917 16.0502 13.4667 16.0502 12.5C16.0502 11.5333 15.7085 10.7083 15.0252 10.025C14.3419 9.34167 13.5169 9 12.5502 9C11.5669 9 10.7377 9.34167 10.0627 10.025C9.3877 10.7083 9.0502 11.5333 9.0502 12.5C9.0502 13.4667 9.3877 14.2917 10.0627 14.975C10.7377 15.6583 11.5669 16 12.5502 16ZM12.5502 14C12.1335 14 11.7794 13.8542 11.4877 13.5625C11.196 13.2708 11.0502 12.9167 11.0502 12.5C11.0502 12.0833 11.196 11.7292 11.4877 11.4375C11.7794 11.1458 12.1335 11 12.5502 11C12.9669 11 13.321 11.1458 13.6127 11.4375C13.9044 11.7292 14.0502 12.0833 14.0502 12.5C14.0502 12.9167 13.9044 13.2708 13.6127 13.5625C13.321 13.8542 12.9669 14 12.5502 14ZM11.5002 20.5H13.4752L13.8252 17.85C14.3419 17.7167 14.821 17.5208 15.2627 17.2625C15.7044 17.0042 16.1085 16.6917 16.4752 16.325L18.9502 17.35L19.9252 15.65L17.7752 14.025C17.8585 13.7917 17.9169 13.5458 17.9502 13.2875C17.9835 13.0292 18.0002 12.7667 18.0002 12.5C18.0002 12.2333 17.9835 11.9708 17.9502 11.7125C17.9169 11.4542 17.8585 11.2083 17.7752 10.975L19.9252 9.35L18.9502 7.65L16.4752 8.7C16.1085 8.31667 15.7044 7.99583 15.2627 7.7375C14.821 7.47917 14.3419 7.28333 13.8252 7.15L13.5002 4.5H11.5252L11.1752 7.15C10.6585 7.28333 10.1794 7.47917 9.7377 7.7375C9.29603 7.99583 8.89186 8.30833 8.5252 8.675L6.0502 7.65L5.0752 9.35L7.2252 10.95C7.14186 11.2 7.08353 11.45 7.0502 11.7C7.01686 11.95 7.0002 12.2167 7.0002 12.5C7.0002 12.7667 7.01686 13.025 7.0502 13.275C7.08353 13.525 7.14186 13.775 7.2252 14.025L5.0752 15.65L6.0502 17.35L8.5252 16.3C8.89186 16.6833 9.29603 17.0042 9.7377 17.2625C10.1794 17.5208 10.6585 17.7167 11.1752 17.85L11.5002 20.5Z" fill="#1C1B1F"/>
</g>
</svg>
